<svg xmlns="http://www.w3.org/2000/svg" width="855.47002" height="681.75536" viewBox="0 0 855.47002 681.75536" xmlns:xlink="http://www.w3.org/1999/xlink"><path d="M571.5975,149.33241c-.12527,.02138-.31293,.05318-.54042,.09083-4.45166,.73689-31.36603,4.88942-58.50119-5.44719-11.49536-4.37895-7.57399-5.47034-33.17593-20.69436-30.0155-17.84848-37.71851-17.72375-39.95371-26.04619-4.46318-16.61855,19.36904-42.74324,35.1434-41.02317,4.15301,.45287,8.60071,2.92883,15.5185,1.24997,1.51988-.36885,8.17314-1.9835,11.41664-7.49075,2.89343-4.91287,.44277-8.45685,1.60645-12.4861,3.0544-10.57625,28.51545-15.85436,50.83788-12.12509,12.83894,2.14495,22.82514,8.00077,42.27314,19.62489,33.85001,20.23208,50.77483,30.34814,54.57873,45.84706,3.60544,14.69016-5.04806,21.02,1.24544,36.74533,5.86013,14.64221,15.16756,13.66425,18.3704,25.50919,5.15408,19.06075-13.97551,39.98007-21.94432,48.69443-8.73679,9.55424-17.0924,14.79793-28.18511,21.75929-13.92329,8.73773-20.88475,13.10657-29.25457,12.66208-15.17489-.8059-60.26717,1.93742-60.85533-10.62024-.22038-4.70619-54.90973-.85278-27.98046-51.52012,3.30301-6.2146,68.00945,.42355,68.86346-3.14656" fill="#2f2e41"/><polygon points="597.78694 181.75476 644.29875 251.13271 510.78694 278.13271 519.29088 191.27409 597.78694 181.75476" fill="#ffb6b6"/><polygon points="597.78694 181.75476 644.29875 251.13271 510.78694 278.13271 519.29088 191.27409 597.78694 181.75476" opacity=".1"/><polygon points="500.78694 233.13271 644.78694 227.13271 708.78694 262.13271 705.78694 487.13271 772.78694 614.13271 434.78694 550.13271 460.78694 454.13271 448.78694 252.13271 500.78694 233.13271" fill="#159a2c"/><path d="M3.87807,670.23562c-4.5973-7.24667-5.14023-16.20053-1.45205-23.95072l54.80692-115.15585c4.0904-8.59445,12.88363-14.14749,22.40161-14.14749H771.88865c9.25309,0,17.67165,5.09022,21.9693,13.28457l58.74558,111.9822c4.06073,7.74086,3.79329,16.83204-.71458,24.32114-4.50787,7.48825-12.41699,11.97917-21.15724,12.01393l-805.80659,3.17195h-.10087c-8.54232,0-16.36752-4.30104-20.94617-11.51974Z" fill="#fff"/><path d="M3.87807,670.23562c-4.5973-7.24667-5.14023-16.20053-1.45205-23.95072l54.80692-115.15585c4.0904-8.59445,12.88363-14.14749,22.40161-14.14749H771.88865c9.25309,0,17.67165,5.09022,21.9693,13.28457l58.74558,111.9822c4.06073,7.74086,3.79329,16.83204-.71458,24.32114-4.50787,7.48825-12.41699,11.97917-21.15724,12.01393l-805.80659,3.17195h-.10087c-8.54232,0-16.36752-4.30104-20.94617-11.51974Zm75.75648-150.65004c-8.51901,0-16.38914,4.9707-20.05019,12.66239L4.77744,647.40382c-3.30122,6.93643-2.81551,14.95023,1.29947,21.4374,4.09845,6.46089,11.10142,10.31012,18.74776,10.31012h.09028l805.80659-3.17195c7.82266-.03052,14.90191-4.05098,18.93637-10.75345,4.03488-6.70247,4.27392-14.84003,.63999-21.76714l-58.74558-111.9839c-3.84712-7.33313-11.38157-11.88932-19.66366-11.88932H79.63456Z" fill="#3f3d56"/><path d="M707.43831,637.73232l-285.67432-19.64063c-4.21777-.29004-7.58154-3.13379-8.56934-7.24414-.98828-4.11035,.71582-8.17187,4.34082-10.34668l63.1709-37.90332c1.604-.96289,3.44385-1.43066,5.30908-1.34082l247.10596,11.23242c3.26709,.14746,6.18506,1.93164,7.80566,4.77246,1.62109,2.83984,1.67236,6.25977,.13818,9.14746l-24.60254,46.31152c-1.65137,3.1084-4.88867,5.03418-8.37402,5.03418-.21582,0-.43311-.00781-.65039-.02246Z" fill="#3f3d56"/><polygon points="419.28694 606.63271 703.78694 626.13271 726.28694 577.63271 482.34011 568.06586 419.28694 606.63271" fill="#fff"/><circle cx="559.28673" cy="119.63292" r="85.492" fill="#ffb6b6"/><path d="M586.82325,125.16526c-.12527,.02138-.31293,.05318-.8-11.04883,24.62988-24.62988v-126.83496c0-3.0918-.57275-6.11914-1.70264-8.99805l-25.30566-64.47559c-3.06934-7.81934-9.7168-13.35071-17.66309-15.06335,2.54883-3.02167,5.10156-6.04028,7.67432-9.04999,3.23926,1.56299,6.80273,2.84607,10.63403,3.74677,10.13574,2.38275,14.07886,.25824,15.07642-.32526,.95264-.5575,5.08203-2.8233,5.78198-6.60242,.07495-.40485,.104-.81464,.09863-1.22729,10.38232,8.43982,15.7981,12.59979,19.75513,11.21271,3.40186-1.19244,5.34399-5.1004,6.45605-8.60718,1.16138,.16119,2.39307,.32642,3.70581,.50171,14.21948,1.89862,21.38501,2.77924,24.12598-.58881,3.79346-4.66107,.19287-13.64899-.79956-16.12604-2.15698-5.38403-5.4751-8.65979-7.53638-10.65265-2.67651-2.58801-10.30518-9.96387-22.31519-10.94775-2.61084-.21393-4.9563-.04974-7.3457,.45026-.83252-.76154-1.71118-1.50775-2.67871-2.21643-1.84351-1.35052-3.66406-2.35083-5.62354-3.13226,3.00586-3.2934,6.02002-6.57623,9.04834-9.84564,.47949,.21802,.93457,.42865,1.35278,.62292,9.9209,4.60773,12.10059,9.11981,21.64136,11.49512,4.32861,1.07758,9.229,2.29767,10.44189,.46344,2.15527-3.25848-6.99268-16.66602-21.12891-25.73755,.95312-1.00916,1.90869-2.01508,2.86401-3.02155,1.29272,.54193,2.43164,1.07056,3.4021,1.52124,9.9209,4.60779,12.10059,9.11981,21.6416,11.49512,4.32812,1.07758,9.22852,2.29767,10.44189,.46344,1.92285-2.90747-5.15283-13.89789-16.74072-22.677,3.18311-1.0108,7.40381-2.13104,12.86938-1.98743,8.29004,.2179,14.76562,3.2254,18.61011,5.01099,9.9209,4.60773,12.10059,9.11981,21.64136,11.49512,4.32837,1.07758,9.22876,2.29761,10.44189,.46338,3.20386-4.84436-18.55713-32.13715-44.58789-34.23212-2.02051-.16266-3.83691-.14886-5.47876-.02753-.22681-.37592-.47314-.76184-.73267-1.15436,8.80737,.28308,26.00781-2.23499,40.64795,8.04358,4.22144,2.96375,12.42212,9.93555,26.14648,15.66357,4.38647,1.83081,6.59229,2.73096,7.19971,1.97913,2.17456-2.69092-15.90698-24.83765-41.3457-35.74786-10.08594-4.32562-16.31763-4.73492-20.75-4.07965,.68311-.77881,1.34888-1.58258,1.98975-2.38983,9.90552-9.71509,19.93604-19.32855,30.05664-28.81268-.48999,1.51489-.47363,2.32117,.06079,2.90918Zm-127.11743,120.91547c-11.18823-3.62207-24.73608-1.67609-28.2688,2.444  </svg>
